<svg xmlns="http://www.w3.org/2000/svg" viewBox="0 0 160 40" fill="none">
  <rect width="40" height="40" rx="10" fill="#ff9b7a"/>
  <path d="M12 28V12L28 28V12" stroke="#0c1117" stroke-width="3.2" stroke-linecap="round" stroke-linejoin="round"/>
  <path d="M54 28V14h2.4l8.8 11.2V14H68v14h-2.3L56.8 16.8V28H54z" fill="#ffffff"/>
  <path d="M74 25.2l1.8-1.4c.9 1.3 2.2 2 3.7 2 1.8 0 2.8-.8 2.8-2 0-1.1-.7-1.7-2.4-2.2l-1.6-.5C76 20.4 74.8 19.2 74.8 17.2c0-2.3 1.8-3.8 4.4-3.8 2 0 3.4.8 4.3 2.1l-1.7 1.3c-.7-1-1.6-1.5-2.7-1.5-1.4 0-2.2.7-2.2 1.7 0 1 .6 1.5 2.1 2l1.6.5c2.6.8 3.6 2 3.6 4 0 2.5-2 4.1-5 4.1-2.3 0-4-.9-5.2-2.4z" fill="#ffffff"/>
  <path d="M88 22.4L84.2 14h2.7l2.6 5.8L92.2 14h2.5L91 22.4V28h-3v-5.6z" fill="#ff9b7a"/>
</svg>
