<svg width="1600" height="520" viewBox="0 0 1600 520" fill="none" xmlns="http://www.w3.org/2000/svg" role="img" aria-labelledby="title desc">
  <title id="title">NeXifyAI by NeXify - light logo</title>
  <desc id="desc">Light logo version for NeXifyAI by NeXify.</desc>
  <defs>
    <linearGradient id="accent" x1="80" y1="60" x2="390" y2="340" gradientUnits="userSpaceOnUse">
      <stop stop-color="#FF8B37"/>
      <stop offset="1" stop-color="#FF5524"/>
    </linearGradient>
    <linearGradient id="strokeGrad" x1="0" y1="0" x2="274" y2="274" gradientUnits="userSpaceOnUse">
      <stop stop-color="#FFE0C8"/>
      <stop offset="1" stop-color="#FF8B37"/>
    </linearGradient>
  </defs>
  <rect width="1600" height="520" rx="36" fill="#F7F9FC"/>
  <g transform="translate(86 90)">
    <rect x="0" y="0" width="274" height="274" rx="74" fill="white" stroke="#E6EBF2"/>
    <rect x="0.5" y="0.5" width="273" height="273" rx="73.5" stroke="url(#strokeGrad)" stroke-opacity="0.8"/>
    <path d="M54 214V58L146 164L220 70V214" stroke="#0E1726" stroke-width="25" stroke-linecap="round" stroke-linejoin="round"/>
    <path d="M94 214V126L146 164" stroke="url(#accent)" stroke-width="25" stroke-linecap="round" stroke-linejoin="round"/>
    <path d="M146 164L220 70" stroke="url(#accent)" stroke-width="25" stroke-linecap="round" stroke-linejoin="round"/>
    <circle cx="54" cy="214" r="16" fill="#0E1726"/>
    <circle cx="146" cy="164" r="16" fill="#FF7A31"/>
    <circle cx="220" cy="70" r="16" fill="#0E1726"/>
    <circle cx="220" cy="214" r="16" fill="#FF7A31"/>
  </g>
  <g transform="translate(420 112)">
    <text x="0" y="132" fill="#0E1726" font-family="Inter, Manrope, Arial, sans-serif" font-size="118" font-weight="800" letter-spacing="-3.5">NeXify</text>
    <text x="441" y="132" fill="#FF7A31" font-family="Inter, Manrope, Arial, sans-serif" font-size="118" font-weight="800" letter-spacing="-3.5">AI</text>
    <text x="6" y="186" fill="#607086" font-family="Inter, Manrope, Arial, sans-serif" font-size="34" font-weight="500" letter-spacing="0.6">by NeXify</text>
    <line x1="6" y1="229" x2="628" y2="229" stroke="#D8DEE8" stroke-width="2"/>
    <text x="6" y="286" fill="#0E1726" font-family="Inter, Manrope, Arial, sans-serif" font-size="52" font-weight="700" letter-spacing="-0.9">Chat it.</text>
    <text x="220" y="286" fill="#FF7A31" font-family="Inter, Manrope, Arial, sans-serif" font-size="52" font-weight="700" letter-spacing="-0.9">Automate it.</text>
    <text x="6" y="344" fill="#607086" font-family="Inter, Manrope, Arial, sans-serif" font-size="26" font-weight="500" letter-spacing="0.4">AI chat, automations, integrations and custom digital systems for DACH.</text>
  </g>
</svg>
